<svg xmlns="http://www.w3.org/2000/svg" width="512" height="512" viewBox="0 0 512 512" version="1.1"><path d="" stroke="none" fill="#080404" fill-rule="evenodd"/><path d="M 65 77.081 C 59.452 79.592, 55.484 83.264, 52.658 88.500 L 50.500 92.500 50.500 256.500 L 50.500 420.500 52.658 424.500 C 55.484 429.736, 59.452 433.408, 65 435.919 C 69.476 437.945, 70.508 437.956, 256.500 437.956 C 442.492 437.956, 443.524 437.945, 448 435.919 C 453.548 433.408, 457.516 429.736, 460.342 424.500 L 462.500 420.500 462.500 256.500 L 462.500 92.500 460.342 88.500 C 457.516 83.264, 453.548 79.592, 448 77.081 C 443.524 75.055, 442.492 75.044, 256.500 75.044 C 70.508 75.044, 69.476 75.055, 65 77.081 M 326.500 92.718 C 325.400 92.985, 323.037 94.306, 321.249 95.654 C 308.754 105.069, 316.453 125.268, 331.968 123.777 C 340.696 122.938, 346.337 116.697, 346.368 107.843 C 346.404 97.806, 336.521 90.283, 326.500 92.718 M 368.966 94.250 C 357.911 99.830, 357.101 113.760, 367.385 121.438 C 371.257 124.329, 380.743 124.329, 384.615 121.438 C 391.811 116.065, 393.715 108.583, 389.815 101 C 387.325 96.160, 380.939 92, 376 92 C 374.583 92, 371.418 93.013, 368.966 94.250 M 414.274 94.093 C 399.994 101.162, 404.083 122.245, 420.032 123.777 C 429.240 124.662, 437 117.338, 437 107.762 C 437 101.948, 433.838 97.184, 428.030 94.250 C 422.502 91.457, 419.665 91.425, 414.274 94.093 M 76 277.500 L 76 413 256.500 413 L 437 413 437 277.500 L 437 142 256.500 142 L 76 142 76 277.500 M 264.260 203.250 C 263.112 204.488, 261.475 207.975, 260.624 211 C 255.810 228.099, 233 325.241, 233 328.643 C 233 333.597, 235.282 335.960, 240.778 336.697 C 245.467 337.326, 248.479 335.920, 250.369 332.220 C 252.472 328.105, 280 213.781, 280 209.165 C 280 206.013, 279.431 204.698, 277.365 203.073 C 273.665 200.162, 267.043 200.251, 264.260 203.250 M 177.255 238.837 L 132.009 258.500 132.005 269.547 L 132 280.594 172.250 297.992 C 194.387 307.561, 214.863 316.421, 217.750 317.682 L 223 319.975 222.995 306.737 L 222.990 293.500 192.476 281.550 C 175.694 274.978, 162.533 269.302, 163.231 268.936 C 163.929 268.570, 177.662 263.194, 193.750 256.989 L 223 245.706 223 232.353 C 223 225.009, 222.887 219.039, 222.750 219.087 C 222.613 219.134, 202.140 228.022, 177.255 238.837 M 290 232.869 L 290 245.738 320.496 257.539 C 337.269 264.030, 350.827 269.506, 350.625 269.708 C 350.423 269.910, 336.813 275.358, 320.379 281.814 L 290.500 293.553 290.220 306.870 C 290.065 314.279, 290.332 320.034, 290.823 319.843 C 291.308 319.654, 311.810 310.741, 336.383 300.035 L 381.061 280.570 380.781 269.556 L 380.500 258.541 336 239.298 C 311.525 228.714, 291.163 220.042, 290.750 220.027 C 290.337 220.012, 290 225.791, 290 232.869" stroke="none" fill="#040404" fill-rule="evenodd"/></svg>